<svg width="63" height="50" viewBox="0 0 63 50" fill="none" xmlns="http://www.w3.org/2000/svg">
<path fill-rule="evenodd" clip-rule="evenodd" d="M0.666687 6.50016C0.666687 9.90592 3.4276 12.6668 6.83335 12.6668C10.2391 12.6668 13 9.90592 13 6.50016C13 3.09441 10.2391 0.333496 6.83335 0.333496C3.4276 0.333496 0.666687 3.09441 0.666687 6.50016ZM19.1667 3.41683H62.3334V9.5835H19.1667V3.41683ZM62.3334 21.9168H19.1667V28.0835H62.3334V21.9168ZM19.1667 46.5835H62.3334V40.4168H19.1667V46.5835ZM0.666687 43.5002C0.666687 46.9059 3.4276 49.6668 6.83335 49.6668C10.2391 49.6668 13 46.9059 13 43.5002C13 40.0944 10.2391 37.3335 6.83335 37.3335C3.4276 37.3335 0.666687 40.0944 0.666687 43.5002ZM6.83335 31.1668C3.4276 31.1668 0.666687 28.4059 0.666687 25.0002C0.666687 21.5944 3.4276 18.8335 6.83335 18.8335C10.2391 18.8335 13 21.5944 13 25.0002C13 28.4059 10.2391 31.1668 6.83335 31.1668Z" fill="#ACB3CB"/>
</svg>
