<svg width="140" height="22" viewBox="0 0 140 22" fill="none" xmlns="http://www.w3.org/2000/svg">
<path d="M0 20.7091H12.0928V17.4771H3.79752V12.333H10.7462V9.45117H3.79752V4.79179H11.8235V1.58679H0V20.7091Z" fill="#6666FF"/>
<path d="M14.9393 20.7091H18.6291V6.67709H18.6829L23.6655 20.7091H27.1129L32.0955 6.67709H32.1493V20.7091H35.8391V1.58679H30.5064L25.4161 16.2382H25.3892L20.272 1.58679H14.9393V20.7091Z" fill="#6666FF"/>
<path d="M52.2441 21.2208C53.6446 21.2208 54.9374 20.5744 55.7993 19.5779L54.6681 17.6118C54.2641 18.1774 53.8601 18.4467 53.4561 18.4467C52.9983 18.4467 52.7289 18.0427 52.5673 17.4771L51.8671 14.7569C51.6247 13.7335 51.1399 12.9524 50.1703 12.4946V12.4676C52.8367 11.8482 54.4257 9.82823 54.4257 7.43121C54.4257 3.90301 51.6516 1.58679 47.504 1.58679H39.5049V20.7091H43.4371V13.141H45.9149C46.8576 13.141 47.7194 13.922 48.0426 15.0263L48.9853 18.5544C49.3893 20.1166 50.4935 21.2208 52.2441 21.2208ZM43.4371 10.2322V4.65713H47.2346C49.1738 4.65713 50.5204 5.73444 50.5204 7.48507C50.5204 9.12797 49.1469 10.2322 47.2346 10.2322H43.4371Z" fill="#6666FF"/>
<path d="M64.1495 20.7091H68.0278V13.7873H72.0408C75.9999 13.7873 78.7201 11.3365 78.7201 7.70053C78.7201 4.03768 75.9999 1.58679 71.9331 1.58679H64.1495V20.7091ZM68.0278 10.717V4.65713H71.3944C73.4144 4.65713 74.7879 5.89604 74.7879 7.70053C74.7879 9.4781 73.3874 10.717 71.3944 10.717H68.0278Z" fill="#6666FF"/>
<path d="M86.9365 21.1669C91.0572 21.1669 93.7236 18.2851 93.7236 13.8143C93.7236 9.37037 91.0572 6.51549 86.9365 6.51549C82.8158 6.51549 80.1495 9.37037 80.1495 13.8143C80.1495 18.2851 82.8158 21.1669 86.9365 21.1669ZM86.9365 18.1505C84.9166 18.1505 83.6507 16.4806 83.6507 13.8143C83.6507 11.1749 84.9166 9.53196 86.9365 9.53196C88.9295 9.53196 90.2223 11.1749 90.2223 13.8143C90.2223 16.4806 88.9295 18.1505 86.9365 18.1505Z" fill="#6666FF"/>
<path d="M103.096 6.56936C101.534 6.56936 100.242 7.56587 99.6221 9.26264H99.5951L99.1642 6.97335H96.3093V20.7091H99.8375V13.3295C99.8375 10.7978 100.672 9.3165 102.073 9.3165C103.15 9.3165 103.824 10.2861 103.904 12.0367L106.867 11.2018C106.759 8.26612 105.359 6.56936 103.096 6.56936Z" fill="#6666FF"/>
<path d="M115.199 21.14C117.407 21.14 119.077 20.0088 119.616 18.0427L117.919 16.1844C117.596 17.6387 116.842 18.2313 115.845 18.2313C114.795 18.2313 114.175 17.4502 114.175 16.1305V9.66663H118.835V6.97335H114.175V2.47557L110.674 3.25663V6.97335H108.304V9.66663H110.674V16.75C110.674 19.4432 112.344 21.14 115.199 21.14Z" fill="#6666FF"/>
<path d="M125.723 21.0323C127.609 21.0323 129.117 20.2243 129.979 18.7968H130.006L130.383 20.7091H133.507V11.6327C133.507 8.56238 131.271 6.51549 127.716 6.51549C124.161 6.51549 121.764 8.56238 121.656 11.1749L124.888 11.929C124.942 10.4746 126.02 9.20877 127.689 9.20877C129.063 9.20877 130.086 9.93596 130.086 11.0941C130.086 11.8482 129.602 12.2791 128.955 12.333L126.774 12.5754C123.192 12.9524 121.279 14.6492 121.279 17.1001C121.279 19.524 123.111 21.0323 125.723 21.0323ZM127.016 18.3659C125.723 18.3659 124.808 17.7734 124.808 16.75C124.808 15.7265 125.669 14.9455 127.582 14.73L130.006 14.4607V15.1609C130.006 17.0731 128.74 18.3659 127.016 18.3659Z" fill="#6666FF"/>
<path d="M136.472 20.7091H140V0.778809H136.472V20.7091Z" fill="#6666FF"/>
</svg>
